# xmcd CD database file
#
# Track frame offsets:
#	150
#	11650
#	20421
#	33208
#	43786
#	54874
#	67173
#	78777
#	91938
#	104659
#	114986
#	125805
#	137131
#	148568
#	160704
#	173838
#	185968
#	197993
#	211126
#	222903
#	234692
#	247186
#	258190
#	269919
#	281658
#	293043
#	304663
#	317077
#
# Disc length: 4376 seconds
#
# Revision: 1
# Processed by: cddbd v1.5.2PL0 Copyright (c) Steve Scherf et al.
# Submitted via: CDex 1.40Beta9
#
DISCID=aa11161c
DTITLE=Various Artist - The Complete Motown Singles Volume 2 [CD7]
DYEAR=2005
DGENRE=R&B/Soul
TTITLE0=Marvin Gaye - Mr. Sandman
TTITLE1=Marvin Gaye - I'm Yours, You're Mine
TTITLE2=Henry Lumpkin - What Is A Man (Without A Woman)
TTITLE3=Henry Lumpkin - Don't Leave Me
TTITLE4=Mary Wells - The One Who Really Loves You
TTITLE5=Mary Wells - I'm Gonna Stay
TTITLE6=The Downbeats - Your Baby's Back
TTITLE7=The Downbeats - Request Of A Fool [a.k.a. I Wanna Know Why]
TTITLE8=Singin' Sammy Ward - Big Joe Moe
TTITLE9=Singin' Sammy Ward - Everybody Knew It But Me
TTITLE10=Debbie Dean - Everybody's Talking About My Baby
TTITLE11=Debbie Dean - I Cried All Night
TTITLE12=Little Otis - I Out-Duked The Duke
TTITLE13=Little Otis - Baby I Need You
TTITLE14=The Temptations - (You're My) Dream Come True
TTITLE15=The Temptations - Isn't She Pretty
TTITLE16=Eddie Holland - You Deserve What You Got
TTITLE17=Eddie Holland - Last Night I Had A Vision
TTITLE18=The Miracles - I'll Try Something New
TTITLE19=The Miracles - You Never Miss A Good Thing
TTITLE20=The Marvelettes - Playboy
TTITLE21=The Marvelettes - All The Love I've Got
TTITLE22=Lee and The Leopards - Come Into My Palace
TTITLE23=Lee and The Leopards - Trying To Make It
TTITLE24=Eddie Holland - (If) Cleopatra Took A Chance
TTITLE25=Eddie Holland - What About Me
TTITLE26=Marvin Gaye - Soldier's Plea
TTITLE27=Marvin Gaye - Taking My Time
EXTD=YEAR: 2005
EXTT0=
EXTT1=
EXTT2=
EXTT3=
EXTT4=
EXTT5=
EXTT6=
EXTT7=
EXTT8=
EXTT9=
EXTT10=
EXTT11=
EXTT12=
EXTT13=
EXTT14=
EXTT15=
EXTT16=
EXTT17=
EXTT18=
EXTT19=
EXTT20=
EXTT21=
EXTT22=
EXTT23=
EXTT24=
EXTT25=
EXTT26=
EXTT27=
PLAYORDER=
